# xmcd
#
# Track frame offsets:
#	150
#	12717
#	25594
#	41520
#	51705
#	64184
#	72825
#	88633
#	99453
#	110674
#	127876
#	141056
#	154793
#	173554
#	191456
#	205161
#	216430
#	232893
#	247681
#	257269
#	268487
#	280882
#	309500
#	329965
#
# Disc length: 4633 seconds
#
# Revision: 1
# Processed by: cddbd v1.5.1PL2 Copyright (c) Steve Scherf et al.
# Submitted via: audiograbber 1.83.01
#
DISCID=5f121718
DTITLE=Gram Parsons - Gram Parsons Anthology Vol.1
DYEAR=2001
DGENRE=Country
TTITLE0=Blue Eyes
TTITLE1=Luxury Liner
TTITLE2=Do You Know How It Feels To Be Lonesome
TTITLE3=I Must Be Somebody Else You've Known
TTITLE4=Miller's Cave
TTITLE5=Knee Deep In The Blues
TTITLE6=Hickory Wind
TTITLE7=You're Still On My Mind
TTITLE8=The Christian Life
TTITLE9=You Don't Miss Your Water
TTITLE10=One Hundred Years From Now
TTITLE11=Christine's Tune (Devil In Disguise)
TTITLE12=Sin City
TTITLE13=Do Right Woman
TTITLE14=Dark End Of The Street
TTITLE15=Wheels
TTITLE16=Juanita
TTITLE17=Hot Burrito #1
TTITLE18=Hot Burrito #2
TTITLE19=High Fashion Queen
TTITLE20=Older Guys
TTITLE21=Cody, Cody
TTITLE22=Wild Horses
TTITLE23=Sing Me Back Home
EXTD=
EXTT0=
EXTT1=
EXTT2=
EXTT3=
EXTT4=
EXTT5=
EXTT6=
EXTT7=
EXTT8=
EXTT9=
EXTT10=
EXTT11=
EXTT12=
EXTT13=
EXTT14=
EXTT15=
EXTT16=
EXTT17=
EXTT18=
EXTT19=
EXTT20=
EXTT21=
EXTT22=
EXTT23=
PLAYORDER=
